<svg xmlns="http://www.w3.org/2000/svg" enable-background="new 0 0 24 24" viewBox="0 0 24 24"><path fill="#fff" d="m10.735 5.823c-.909.365-1.887.632-2.883.632-2.845-1.661-6.706.07-6.706 3.708h.001c0 1.355.856 3.215 2.194 3.67v.054c-.993.445-1.269 2.711.054 3.525v.054c-1.444.481-2.395 1.408-2.395 3.009 0 2.759 2.58 3.525 4.839 3.525 2.751 0 4.797-1.002 4.797-4.072 0-3.777-5.341-2.384-5.341-4.435 0-.724.382-1.002 1.041-1.141 2.194-.413 3.57-2.143 3.57-4.404 0-.391-.079-.761-.212-1.125.354-.08.698-.177 1.041-.295zm-4.949 13.116v-.001c.898 0 2.179.161 2.179 1.339 0 1.168-1.031 1.409-1.994 1.409-.915 0-2.29-.145-2.29-1.35.006-1.193 1.169-1.397 2.105-1.397zm-.17-6.937v-.002c-1.163 0-1.654-.696-1.654-1.81 0-2.642 3.226-2.614 3.226-.026-.001 1.088-.424 1.838-1.572 1.838z"/><path fill="#fff" d="m5.667 16.252v2.688c.04-.001.08-.001.119-.001v-.001c.898 0 2.179.161 2.179 1.339 0 1.168-1.031 1.409-1.994 1.409-.097 0-.199-.002-.304-.006v2.318c.057.001.115.002.172.002 2.751 0 4.797-1.002 4.797-4.072 0-3.168-3.757-2.699-4.969-3.676zm5.068-10.429c-.909.365-1.887.632-2.883.632-.691-.404-1.443-.607-2.185-.631v2.395c.775.048 1.521.7 1.521 1.945 0 1.072-.411 1.816-1.521 1.837v2.616c.17-.127.396-.208.669-.266 2.194-.413 3.57-2.143 3.57-4.404 0-.391-.079-.761-.212-1.125.354-.08.698-.177 1.041-.295z"/><path fill="#fff" d="M13.491 0c-1.057 0-1.824.932-1.824 1.966 0 1.018.777 1.939 1.824 1.939 1.02 0 1.787-.937 1.787-1.939 0-1.001-.74-1.966-1.787-1.966zM12.016 5.957c.095.792.085 10.699 0 11.668h2.936c-.084-.963-.095-10.886 0-11.668z"/><path fill="#fff" d="M13.491 0c-.006 0-.012 0-.019 0v3.905h.019c1.02 0 1.787-.937 1.787-1.939 0-1.001-.74-1.966-1.787-1.966zM14.951 5.957h-1.479v11.668h1.479c-.084-.963-.094-10.886 0-11.668z"/><path fill="#fff" d="m23 17.277v-2.625c-.423.295-1.031.444-1.549.444-.979 0-1.153-.964-1.153-1.758v-4.88c1.677 0 2.697.054 2.697.054v-2.545h-2.697c0-.734-.027-1.468.079-2.207h-2.999c.095.546.079 1.013.079 2.207h-1.27v2.545c.884-.139.899-.054 1.27-.054v.054h-.025v4.699c0 2.331.332 4.591 3.162 4.591.793 0 1.703-.134 2.406-.525z"/><path fill="#fff" d="m20.377 3.76h-1.46v13.659c.427.244.975.383 1.677.383.793 0 1.703-.134 2.406-.525v-2.625c-.423.295-1.031.444-1.549.444-.979 0-1.153-.964-1.153-1.758v-4.88c1.677 0 2.697.054 2.697.054v-2.545h-2.697c0-.734-.028-1.467.079-2.207z"/></svg>